<svg width="1200" height="800" viewBox="0 0 1200 800" fill="none" xmlns="http://www.w3.org/2000/svg">
  <rect width="1200" height="800" rx="24" fill="#1f2937" />
  <rect x="72" y="88" width="1056" height="624" rx="20" fill="#111827" stroke="#374151" stroke-width="4" />
  <rect x="128" y="144" width="160" height="512" rx="16" fill="#4b5563" />
  <rect x="320" y="176" width="128" height="448" rx="16" fill="#4b5563" />
  <rect x="496" y="208" width="144" height="416" rx="16" fill="#4b5563" />
  <rect x="696" y="160" width="176" height="464" rx="16" fill="#4b5563" />
  <rect x="920" y="208" width="128" height="448" rx="16" fill="#4b5563" />
  <rect x="192" y="240" width="56" height="56" rx="8" fill="#9ca3af" />
  <rect x="192" y="328" width="56" height="56" rx="8" fill="#9ca3af" />
  <rect x="192" y="416" width="56" height="56" rx="8" fill="#9ca3af" />
  <rect x="192" y="504" width="56" height="56" rx="8" fill="#9ca3af" />
  <rect x="368" y="240" width="48" height="48" rx="8" fill="#9ca3af" />
  <rect x="368" y="328" width="48" height="48" rx="8" fill="#9ca3af" />
  <rect x="368" y="416" width="48" height="48" rx="8" fill="#9ca3af" />
  <rect x="368" y="504" width="48" height="48" rx="8" fill="#9ca3af" />
  <rect x="520" y="272" width="64" height="64" rx="10" fill="#9ca3af" />
  <rect x="520" y="364" width="64" height="64" rx="10" fill="#9ca3af" />
  <rect x="520" y="456" width="64" height="64" rx="10" fill="#9ca3af" />
  <rect x="720" y="224" width="56" height="56" rx="8" fill="#9ca3af" />
  <rect x="720" y="312" width="56" height="56" rx="8" fill="#9ca3af" />
  <rect x="720" y="400" width="56" height="56" rx="8" fill="#9ca3af" />
  <rect x="720" y="488" width="56" height="56" rx="8" fill="#9ca3af" />
  <rect x="928" y="240" width="48" height="48" rx="8" fill="#9ca3af" />
  <rect x="928" y="328" width="48" height="48" rx="8" fill="#9ca3af" />
  <rect x="928" y="416" width="48" height="48" rx="8" fill="#9ca3af" />
  <rect x="928" y="504" width="48" height="48" rx="8" fill="#9ca3af" />
  <rect x="104" y="632" width="992" height="64" rx="12" fill="#374151" />
  <rect x="236" y="704" width="728" height="48" rx="12" fill="#4b5563" />
  <text x="120" y="96" fill="#e5e7eb" font-size="48" font-family="Inter, sans-serif">Hyderabad Office</text>
</svg>
